PathFileType	4	(X/Y/Z)	./resultDataOpenSim/trcMotMarkerGrf/sub09/qtm-14-05.trc
DataRate	CameraRate	NumFrames	NumMarkers	Units	OrigDataRate	OrigDataStartFrame	OrigNumFrames
250.000000	250.000000	12	24	m	250.000000	364	485
Frame#	Time	L.Toe.Tip			R.Toe.Tip			L.Ankle.Lat			R.Ankle.Lat			L.Ankle.Med			R.Ankle.Med			L.Heel			R.Heel			L.Knee.Lat			R.Knee.Lat			L.Knee.Med			R.Knee.Med			L.Thigh.Upper			R.Thigh.Upper			L.ASIS			R.ASIS			V.Sacral			L.Acromium			R.Acromium			C7			L.Elbow			R.Elbow			L.Wrist.Lat			R.Wrist.Lat
		X1	Y1	Z1	X2	Y2	Z2	X3	Y3	Z3	X4	Y4	Z4	X5	Y5	Z5	X6	Y6	Z6	X7	Y7	Z7	X8	Y8	Z8	X9	Y9	Z9	X10	Y10	Z10	X11	Y11	Z11	X12	Y12	Z12	X13	Y13	Z13	X14	Y14	Z14	X15	Y15	Z15	X16	Y16	Z16	X17	Y17	Z17	X18	Y18	Z18	X19	Y19	Z19	X20	Y20	Z20	X21	Y21	Z21	X22	Y22	Z22	X23	Y23	Z23	X24	Y24	Z24

364	1.452	0.9699107	0.099342286	-0.065567576	1.0838996	0.039115742	0.059403911	0.87843195	0.22630875	-0.081704388	0.94074199	0.060196842	0.10128681	0.91643902	0.21600463	0.0093370897	0.9474299	0.098461718	0.0088565451	0.80430323	0.23636928	-0.025926211	0.86711224	0.044919186	0.057839614	1.1597044	0.51716875	-0.11938598	1.0837543	0.49508906	0.15357468	1.176764	0.50673824	0.0045780351	1.0531373	0.48627947	0.029799753	0.96400442	0.87570656	-0.14006122	0.99716199	0.89465964	0.22928113	1.0390717	0.96428517	-0.08953378	1.0719919	0.97718661	0.14506831	0.89125287	1.0287279	0.04404555	1.0446276	1.413949	-0.16051115	1.0475809	1.4409529	0.16982068	0.97482005	1.4757323	0.0063826538	0.92396279	1.0610914	-0.18037397	0.92576789	1.0965075	0.28732173	1.0521042	0.83614227	-0.22780719	1.1432241	0.92180211	0.27454156
365	1.456	0.98868188	0.097432672	-0.066392999	1.0840355	0.039116243	0.059356601	0.89322027	0.22133198	-0.0828972	0.94092839	0.060754443	0.10126705	0.93139767	0.21211031	0.0082065936	0.94783399	0.099043928	0.0089135195	0.81867794	0.22939974	-0.027344183	0.86739967	0.0456532	0.057930927	1.1676259	0.51966784	-0.11978777	1.0850114	0.49528554	0.15364986	1.1857481	0.50957444	0.0041406698	1.0546956	0.48648786	0.030090256	0.96884928	0.87757581	-0.14085551	1.0017081	0.89561356	0.22895221	1.0443006	0.96598504	-0.089733892	1.0769396	0.97825199	0.14492667	0.89618302	1.0299863	0.04387336	1.0490509	1.4152207	-0.16100656	1.0525142	1.4424359	0.16931627	0.97953773	1.477029	0.0059789354	0.92746579	1.0627496	-0.18072287	0.93139708	1.0976675	0.28714299	1.0542159	0.83733154	-0.22935096	1.1501769	0.92449397	0.27301492
366	1.46	1.0074673	0.095488526	-0.067160881	1.0842689	0.039151725	0.05927504	0.90818142	0.21621675	-0.084116609	0.94113617	0.061324873	0.10124902	0.94637963	0.2081389	0.0070593435	0.94791462	0.099556528	0.0088722253	0.83330275	0.22224064	-0.028887512	0.86754334	0.046456994	0.057845408	1.1754392	0.52199819	-0.12018535	1.0863585	0.49547639	0.15386102	1.1938015	0.51223662	0.0035196747	1.0561427	0.48679656	0.030297846	0.97386036	0.87934942	-0.14154109	1.006166	0.89649122	0.22874843	1.0495428	0.96761776	-0.089934902	1.0818679	0.97928616	0.14478437	0.90115087	1.0312058	0.043631359	1.0534811	1.4164457	-0.16149582	1.0574519	1.443868	0.16881899	0.98426819	1.4782987	0.0055720258	0.9309705	1.0643717	-0.18108937	0.93704441	1.0987873	0.28696541	1.056373	0.83849312	-0.2308764	1.1570352	0.9270944	0.27150014
367	1.464	1.0262216	0.093506319	-0.067884663	1.0845372	0.039200128	0.05918663	0.92332485	0.21098486	-0.085362444	0.94134431	0.061907529	0.10123464	0.96144532	0.2040954	0.0059032353	0.94774146	0.10001528	0.0087615856	0.84817633	0.21490248	-0.030565575	0.86760655	0.047302044	0.057657431	1.1829534	0.5241642	-0.1206254	1.0878238	0.49567828	0.1541885	1.2011318	0.51472457	0.0027939179	1.0575836	0.48716503	0.030430097	0.97901734	0.88101996	-0.14210772	1.0105517	0.89732793	0.22860422	1.0547923	0.96918726	-0.090137543	1.0867819	0.98029195	0.14463954	0.90613787	1.0323784	0.043326119	1.0579155	1.4176213	-0.16198012	1.0624152	1.4452508	0.16832036	0.98901816	1.4795277	0.0051585652	0.93448212	1.0659574	-0.18147766	0.94271386	1.0998629	0.28679301	1.0585764	0.83962397	-0.23239449	1.1637996	0.92960159	0.26999716
368	1.468	1.0449465	0.091529165	-0.068556956	1.0847377	0.0392284	0.059134376	0.93865473	0.20566078	-0.086628645	0.94154192	0.062501709	0.10122561	0.97661393	0.19999921	0.0047677038	0.94761682	0.10050004	0.0086692534	0.86328796	0.20741587	-0.032374989	0.86767791	0.048184188	0.057482331	1.1900908	0.52613834	-0.12112967	1.0893216	0.49591178	0.15452714	1.2080914	0.51706079	0.0020603958	1.0591927	0.4875213	0.030550681	0.98418949	0.88258813	-0.14258329	1.0148808	0.89816969	0.22842909	1.0600445	0.97069467	-0.090345022	1.0916849	0.9812702	0.14449336	0.91113562	1.0334971	0.042979722	1.0623562	1.4187447	-0.16246031	1.0674101	1.4465966	0.16781951	0.99378487	1.4806983	0.0047440156	0.93800801	1.0674965	-0.18188474	0.94839278	1.1008946	0.28662845	1.0608273	0.8407242	-0.23390999	1.1704869	0.932017	0.26850744
369	1.472	1.0637151	0.089623767	-0.069171923	1.0848165	0.039222461	0.059139049	0.95417365	0.20026955	-0.087905976	0.94173921	0.063103701	0.10121922	0.99187845	0.19586554	0.0036552558	0.94777783	0.10106736	0.0086655784	0.87862587	0.19981678	-0.034288166	0.86780794	0.049104941	0.057383195	1.1969312	0.52792409	-0.12168329	1.0907283	0.4961831	0.15474294	1.2148904	0.51925905	0.0013685684	1.0610044	0.48785843	0.030708577	0.98933483	0.88405624	-0.14300516	1.0192063	0.89902392	0.22818218	1.0652985	0.97213883	-0.090557636	1.0965748	0.98221948	0.14435156	0.91614802	1.0345582	0.042609006	1.0668097	1.419815	-0.16293857	1.0724288	1.447931	0.1673168	0.99856066	1.481809	0.0043371225	0.94155085	1.0689762	-0.1823092	0.95405063	1.101881	0.28646062	1.0631223	0.84179577	-0.23542079	1.177112	0.93434429	0.26703303
370	1.476	1.0826037	0.087838704	-0.069752463	1.0847948	0.039196571	0.059192965	0.9698794	0.19483091	-0.089185447	0.94194961	0.06371418	0.10120851	1.0072462	0.19169207	0.0025214714	0.94824049	0.10171153	0.0087906447	0.89416839	0.19214453	-0.036240914	0.86798141	0.050050128	0.057331637	1.2036251	0.52955991	-0.12224064	1.0920349	0.49645054	0.1547603	1.2215633	0.52130398	0.00072467818	1.062908	0.48822411	0.030910653	0.99461181	0.88542918	-0.14341123	1.023592	0.89986744	0.22787046	1.0705618	0.97351526	-0.090779669	1.1014459	0.98313593	0.14422299	0.92117874	1.0355634	0.04222126	1.0712802	1.4208318	-0.16341688	1.0774477	1.4492657	0.16681642	1.0033387	1.4828691	0.0039424866	0.94510843	1.0703923	-0.18275137	0.95965903	1.1028168	0.28626661	1.0654588	0.8428383	-0.23692021	1.183678	0.93658632	0.26557313
371	1.48	1.101618	0.08617487	-0.070338712	1.0847241	0.039173585	0.059280366	0.98575994	0.18935212	-0.090462254	0.94217389	0.064336088	0.10118882	1.0227843	0.18747965	0.0013068236	0.94888918	0.10239552	0.0090605706	0.90990675	0.18441683	-0.03814391	0.86814284	0.051010617	0.057247245	1.2102431	0.53104752	-0.12276216	1.0934102	0.49666968	0.15459638	1.2280702	0.52315857	0.00011824759	1.0647874	0.48862544	0.031122794	1.000219	0.88671791	-0.14383784	1.0280575	0.90068843	0.22751539	1.075847	0.97481524	-0.091013155	1.1063003	0.98401731	0.14410938	0.92621692	1.0365194	0.041815629	1.0757669	1.4217934	-0.16389164	1.0824434	1.4505666	0.16632364	1.0081154	1.4838848	0.0035583369	0.94868337	1.0717524	-0.18320801	0.96520728	1.1036966	0.2860261	1.0678394	0.84384643	-0.23839896	1.1901821	0.93874375	0.26412557
372	1.484	1.1207314	0.084604486	-0.070948303	1.0846768	0.039171384	0.059378522	1.0017924	0.18383476	-0.091729516	0.94240851	0.064966613	0.10116072	1.0385925	0.18325565	-1.9059448e-05	0.94956784	0.10309055	0.0094378725	0.92589426	0.17658271	-0.039881493	0.86823432	0.051999775	0.057051743	1.2167102	0.5323458	-0.12325833	1.0951082	0.49685861	0.15433264	1.2343781	0.52479498	-0.00046072667	1.0665997	0.48900258	0.031298621	1.0060982	0.88793462	-0.14430945	1.0325611	0.90148926	0.22715409	1.0811573	0.97603246	-0.091251367	1.111157	0.98486648	0.1439954	0.93124642	1.0374287	0.041384754	1.0802654	1.4226987	-0.16435413	1.0874161	1.4517808	0.16583849	1.0128919	1.4848559	0.0031795872	0.95228364	1.0730634	-0.1836766	0.97071498	1.1045218	0.28574514	1.0702686	0.84481376	-0.23985188	1.1966239	0.94081662	0.26269081
373	1.488	1.1399401	0.083115069	-0.071572653	1.0847319	0.039197534	0.059446016	1.0179663	0.17828344	-0.092977057	0.94265222	0.065599139	0.10112492	1.0547031	0.17905329	-0.001435371	0.95012717	0.10378225	0.0098133595	0.94225711	0.16853553	-0.041317912	0.86823712	0.053035357	0.056728776	1.222943	0.53344285	-0.12377493	1.0972162	0.49705275	0.15408381	1.2404809	0.52621113	-0.001019383	1.0683679	0.48931276	0.03143793	1.0119264	0.88908048	-0.14481956	1.0369998	0.9022475	0.22686902	1.0864843	0.97716808	-0.0914929	1.1160385	0.98568763	0.14385979	0.93627622	1.0382832	0.040919795	1.0847741	1.4235495	-0.16480062	1.0923886	1.4528898	0.16535913	1.0176716	1.4857767	0.0028030325	0.95590997	1.0743232	-0.18416062	0.97622984	1.1053064	0.28546384	1.0727489	0.84574006	-0.24128344	1.2030056	0.94280436	0.26127192
374	1.492	1.1592449	0.08172496	-0.072206961	1.0848772	0.039238303	0.059448921	1.034308	0.17270624	-0.094205574	0.9428993	0.066227267	0.1010807	1.0710239	0.17487513	-0.0028543149	0.95053713	0.10444635	0.010052492	0.95911123	0.16023639	-0.042399446	0.86821237	0.054104474	0.056372099	1.229001	0.53435986	-0.12433573	1.0994237	0.49723994	0.15396317	1.2463992	0.52742114	-0.0015630527	1.070149	0.48958469	0.031597156	1.0174511	0.89014564	-0.14533928	1.0412208	0.90290229	0.22678981	1.091821	0.97822668	-0.091744016	1.120949	0.98648052	0.14369711	0.94132776	1.0390683	0.040423725	1.0892975	1.4243529	-0.16524123	1.09738	1.4539118	0.16488618	1.022456	1.4866372	0.0024291312	0.95955393	1.0755331	-0.18466307	0.98179324	1.1060657	0.28522108	1.0752782	0.84663059	-0.24270421	1.2093285	0.94470479	0.25987165
375	1.496	1.178619	0.080474409	-0.07286399	1.0849997	0.039274064	0.059406425	1.0508531	0.1671292	-0.095425693	0.94314244	0.066846459	0.10103173	1.0873812	0.17069391	-0.004121615	0.95091993	0.10506053	0.010061466	0.97640288	0.15183375	-0.043282172	0.86825508	0.055163135	0.056111577	1.2350325	0.53509112	-0.12493519	1.1012522	0.49738355	0.15401358	1.2521561	0.52843784	-0.0020938791	1.0719702	0.48986525	0.031792757	1.0227269	0.89112327	-0.14585804	1.0451556	0.90342115	0.22697203	1.0971701	0.97920821	-0.092003579	1.125875	0.98724239	0.14351924	0.94635767	1.0397781	0.039923693	1.0938427	1.4251216	-0.16569831	1.1023839	1.4548705	0.16442028	1.0272429	1.4874346	0.0020586399	0.96321304	1.0766997	-0.18517884	0.98741809	1.1068017	0.28502161	1.0778525	0.84748719	-0.24412207	1.2155917	0.94651611	0.25848895
